<svg width="16" height="16" viewBox="0 0 16 16" fill="none" xmlns="http://www.w3.org/2000/svg">
<path d="M3.79116 5.37978C3.59171 5.38274 3.39378 5.34429 3.20958 5.26677C3.02537 5.18925 2.85881 5.07429 2.72016 4.92905C2.57676 4.78861 2.46329 4.61994 2.38675 4.43337C2.31022 4.2468 2.27224 4.0463 2.27516 3.84429C2.27224 3.64228 2.31022 3.44178 2.38675 3.2552C2.46329 3.06863 2.57676 2.89996 2.72016 2.75953C2.85872 2.6141 3.02525 2.49895 3.20945 2.42125C3.39366 2.34355 3.59164 2.30498 3.79116 2.30781C3.99068 2.30498 4.18865 2.34355 4.37286 2.42125C4.55707 2.49895 4.72359 2.6141 4.86216 2.75953C5.00556 2.89996 5.11902 3.06863 5.19556 3.2552C5.2721 3.44178 5.31008 3.64228 5.30716 3.84429C5.31008 4.0463 5.2721 4.2468 5.19556 4.43337C5.11902 4.61994 5.00556 4.78861 4.86216 4.92905C4.72351 5.07429 4.55694 5.18925 4.37274 5.26677C4.18854 5.34429 3.99061 5.38274 3.79116 5.37978ZM2.27416 15.3646C2.17404 15.3671 2.07448 15.3487 1.98161 15.3108C1.88874 15.2728 1.80453 15.216 1.73416 15.1438C1.6629 15.0725 1.6068 14.9872 1.56931 14.8932C1.53182 14.7991 1.51373 14.6983 1.51616 14.5969C1.31663 14.5997 1.11866 14.5611 0.934452 14.4834C0.750246 14.4057 0.583721 14.2905 0.445156 14.1451C0.301755 14.0046 0.188288 13.836 0.111752 13.6494C0.0352159 13.4628 -0.00276498 13.2623 0.000156621 13.0603V8.45181H2.27516V7.87546C2.27015 7.64743 2.31131 7.42077 2.3961 7.20947C2.48089 6.99817 2.60751 6.80675 2.76815 6.64691C2.92596 6.48419 3.11501 6.35593 3.32363 6.27005C3.53225 6.18417 3.75602 6.14245 3.98116 6.14752C4.22289 6.14547 4.46203 6.1981 4.68116 6.30152C4.89991 6.40661 5.09889 6.54953 5.26915 6.72387L6.33116 7.91397C6.43249 8.01661 6.53049 8.11249 6.62516 8.20162C6.72268 8.2931 6.82735 8.37646 6.93816 8.45082H12.1322V2.19128C12.1332 2.10539 12.1169 2.02023 12.0842 1.94097C12.0516 1.86171 12.0032 1.79008 11.9422 1.73047C11.8833 1.66863 11.8126 1.61965 11.7343 1.58655C11.6561 1.55346 11.572 1.53694 11.4872 1.53803C11.4119 1.53777 11.3376 1.55401 11.2692 1.58563C11.1945 1.62095 11.1267 1.66965 11.0692 1.72942L10.1212 2.68961C10.1838 2.89794 10.1969 3.11837 10.1592 3.33279C10.1224 3.54121 10.0453 3.74019 9.93216 3.91823L7.84716 1.76793C8.01935 1.65456 8.21325 1.5793 8.41616 1.54711C8.62078 1.51517 8.8301 1.53826 9.02316 1.614L9.97116 0.653811C10.1701 0.451261 10.4048 0.288401 10.6632 0.173716C10.9232 0.0581797 11.2042 -0.000844803 11.4882 0.000495774C11.7734 -0.00576265 12.0568 0.0472898 12.321 0.156344C12.5852 0.265399 12.8245 0.428116 13.0242 0.634523C13.2278 0.83662 13.3884 1.07886 13.4961 1.34626C13.6038 1.61366 13.6562 1.90058 13.6502 2.1893V8.44878H15.1672V13.0573C15.1701 13.2593 15.1321 13.4598 15.0556 13.6464C14.979 13.8329 14.8656 14.0016 14.7222 14.142C14.5836 14.2875 14.4171 14.4026 14.2329 14.4803C14.0487 14.558 13.8507 14.5967 13.6512 14.5938C13.6536 14.6952 13.6355 14.7961 13.598 14.8901C13.5605 14.9842 13.5044 15.0695 13.4332 15.1408C13.3628 15.2129 13.2786 15.2698 13.1857 15.3077C13.0928 15.3457 12.9933 15.364 12.8932 15.3616L2.27416 15.3646ZM1.51616 13.0603H13.6492V9.98829H1.51715L1.51616 13.0603Z" fill="#5F6368"/>
</svg>
