<svg width="17" height="12" viewBox="0 0 17 12" fill="none" xmlns="http://www.w3.org/2000/svg">
<path d="M0.000191201 11.4594V6.56024C-0.00433969 6.21398 0.0717138 5.8715 0.222191 5.56055C0.368945 5.26235 0.566662 4.99281 0.806191 4.76443V2.47844C0.800456 2.1558 0.860055 1.83539 0.981308 1.53698C1.10256 1.23857 1.2829 0.968484 1.51119 0.743398C1.73342 0.512168 2.00007 0.329488 2.29469 0.206675C2.58931 0.0838627 2.90565 0.023505 3.22419 0.0293134H6.44819C6.7458 0.0268033 7.04081 0.0857557 7.31519 0.202534C7.58784 0.320685 7.83977 0.482819 8.06119 0.682629C8.28261 0.482819 8.53454 0.320685 8.80719 0.202534C9.08158 0.0857557 9.37658 0.0268033 9.67419 0.0293134H12.9002C13.2187 0.023505 13.5351 0.0838627 13.8297 0.206675C14.1243 0.329488 14.391 0.512168 14.6132 0.743398C14.8415 0.968484 15.0218 1.23857 15.1431 1.53698C15.2643 1.83539 15.3239 2.1558 15.3182 2.47844V4.76443C15.5577 4.99281 15.7554 5.26235 15.9022 5.56055C16.0527 5.8715 16.1287 6.21398 16.1242 6.56024V11.4594H14.5102V9.8267H1.61019V11.4594H0.000191201ZM8.86719 4.11118H13.7002V2.47844C13.7027 2.37063 13.6835 2.26339 13.6436 2.16341C13.6037 2.06342 13.544 1.97276 13.4682 1.89702C13.3934 1.82025 13.3039 1.75983 13.2052 1.71942C13.1065 1.679 13.0006 1.65946 12.8942 1.66205H9.67319C9.56674 1.65946 9.46091 1.679 9.36219 1.71942C9.26347 1.75983 9.17397 1.82025 9.09919 1.89702C9.02339 1.97276 8.96371 2.06342 8.92381 2.16341C8.88391 2.26339 8.86463 2.37063 8.86719 2.47844V4.11118ZM2.41819 4.11118H7.25519V2.47844C7.25774 2.37063 7.23848 2.26339 7.19858 2.16341C7.15868 2.06342 7.09899 1.97276 7.02319 1.89702C6.94842 1.82025 6.85891 1.75983 6.76019 1.71942C6.66148 1.679 6.55563 1.65946 6.44919 1.66205H3.22419C3.11774 1.65946 3.0119 1.679 2.91319 1.71942C2.81447 1.75983 2.72497 1.82025 2.65019 1.89702C2.57439 1.97276 2.5147 2.06342 2.4748 2.16341C2.4349 2.26339 2.41564 2.37063 2.41819 2.47844V4.11118ZM1.61219 8.19396H14.5122V6.56123C14.5147 6.45342 14.4955 6.34625 14.4556 6.24626C14.4157 6.14627 14.356 6.05561 14.2802 5.97988C14.2054 5.9031 14.1159 5.84262 14.0172 5.8022C13.9185 5.76179 13.8126 5.74231 13.7062 5.7449H2.41819C2.31175 5.74231 2.2059 5.76179 2.10719 5.8022C2.00847 5.84262 1.91897 5.9031 1.84419 5.97988C1.76839 6.05561 1.7087 6.14627 1.6688 6.24626C1.6289 6.34625 1.60964 6.45342 1.61219 6.56123V8.19396Z" fill="#5F6368"/>
</svg>
