<svg width="26" height="26" viewBox="0 0 26 26" fill="none" xmlns="http://www.w3.org/2000/svg">
<path d="M13 26C14.7949 26 16.25 24.5449 16.25 22.75H9.75C9.75 24.5449 11.2051 26 13 26Z" fill="#292C2D"/>
<path d="M14.6171 1.78593C14.6223 1.73299 14.625 1.67931 14.625 1.625C14.625 0.727537 13.8975 0 13 0C12.1025 0 11.375 0.727537 11.375 1.625C11.375 1.67931 11.3777 1.733 11.3829 1.78594C7.67033 2.53573 4.87504 5.81643 4.87504 9.75C4.87504 11.5336 4.0625 19.5 1.625 21.125H24.375C21.9375 19.5 21.125 11.5336 21.125 9.75C21.125 5.8164 18.3297 2.53569 14.6171 1.78593Z" fill="#292C2D"/>
</svg>
