<svg width="18" height="17" viewBox="0 0 18 17" fill="none" xmlns="http://www.w3.org/2000/svg">
<path d="M6.16829 5.09846L8.54959 0.321471C8.59532 0.225176 8.66696 0.143916 8.75628 0.0870444C8.84559 0.0301724 8.94894 0 9.05444 0C9.15994 0 9.26329 0.0301724 9.3526 0.0870444C9.44192 0.143916 9.51356 0.225176 9.55929 0.321471L11.9406 5.09846L17.2816 5.86673C17.415 5.88743 17.5373 5.95424 17.6276 6.05583C17.718 6.15742 17.7709 6.28753 17.7773 6.4241C17.7796 6.45531 17.7796 6.48663 17.7773 6.51784C17.7671 6.66943 17.7011 6.81161 17.5923 6.9162L13.7485 10.622L14.6524 15.8442C14.6751 15.9511 14.6679 16.0623 14.6314 16.1652C14.595 16.2682 14.5309 16.3587 14.4463 16.4266C14.3617 16.4946 14.26 16.5371 14.1527 16.5496C14.0455 16.562 13.9369 16.5438 13.8394 16.497L9.05361 14.008L4.26126 16.4986C4.20933 16.5256 4.15358 16.5442 4.09601 16.5539C4.00259 16.568 3.90719 16.559 3.81792 16.5278C3.72865 16.4966 3.64814 16.4439 3.58324 16.3744C3.51835 16.3049 3.47098 16.2206 3.44517 16.1285C3.41936 16.0365 3.41587 15.9395 3.435 15.8459L4.33893 10.6236L0.519927 6.9162C0.45976 6.85918 0.411835 6.79023 0.379138 6.71363C0.346442 6.63703 0.329676 6.55442 0.329886 6.47097C0.329788 6.35289 0.361807 6.23707 0.422427 6.13621C0.465439 6.06359 0.523998 6.00168 0.593786 5.95504C0.663573 5.9084 0.742808 5.87822 0.825646 5.86673L6.16829 5.09846ZM9.05196 12.7192C9.13991 12.7192 9.22659 12.7404 9.3048 12.7812L13.3238 14.8734L12.5669 10.5098C12.549 10.4094 12.5558 10.306 12.5866 10.2088C12.6174 10.1116 12.6714 10.0236 12.7437 9.95245L15.9133 6.89444L11.4961 6.2584C11.4052 6.24388 11.3192 6.2074 11.2453 6.15203C11.1713 6.09667 11.1117 6.02407 11.0714 5.94038L9.05361 1.90153L9.05196 12.7192Z" fill="#FFD433"/>
</svg>
