<svg width="40" height="30" viewBox="0 0 40 30" fill="none" xmlns="http://www.w3.org/2000/svg">
<rect x="20.1016" y="14.1769" width="2.75076" height="2.96235" fill="#F3704A"/>
<rect x="20.1016" y="17.5625" width="2.75076" height="2.96235" fill="#F3704A"/>
<rect x="16.7161" y="14.1769" width="2.75076" height="2.96235" fill="#F3704A"/>
<rect x="16.7161" y="17.5625" width="2.75076" height="2.96235" fill="#F3704A"/>
<circle cx="34.1125" cy="2.79625" r="2.79625" fill="#2387C2"/>
<path d="M32.5469 8.57343C32.4918 7.50551 33.3289 6.55945 34.3982 6.55945V6.55945C35.2943 6.55945 36.045 7.23172 36.1095 8.12541C36.2427 9.97413 36.3714 13.0824 35.9714 15.3407C35.4222 18.4415 34.7774 20.4583 33.0091 23.064C31.2826 25.6079 29.4879 26.9203 26.8728 28.3539C24.1507 29.8462 20.3723 30.2241 17.1393 29.6235C13.5172 28.9505 10.5798 27.1901 10.5798 27.1901C10.5798 27.1901 15.9841 28.1943 20.9481 27.1901C23.9232 26.5883 26.6045 24.6446 28.2482 23.064C29.7202 21.6483 31.3419 18.9855 31.9511 16.3987C32.6365 13.4882 32.6455 10.4841 32.5469 8.57343Z" fill="#2387C2"/>
<circle cx="5.12376" cy="2.79625" r="2.79625" fill="#F3704A"/>
<path d="M3.36023 8.31968C3.36023 7.34716 4.14861 6.55945 5.12113 6.55945V6.55945C6.07465 6.55945 6.8549 7.31691 6.88131 8.27007C6.92486 9.8417 6.9898 12.1854 7.03825 13.9339C6.83392 16.5045 8.11299 19.819 9.7334 21.7944C11.3036 23.7086 14.4111 25.7052 16.8463 26.0491C20.3174 26.5394 24.0162 25.7089 24.0162 25.7089C24.0162 25.7089 21.8217 26.5714 18.9379 27.0843C15.7639 27.4017 11.664 27.354 9.41601 25.7089C6.24882 23.3912 5.3521 22.522 4.12609 19.4668C3.7838 18.1906 3.36023 16.7161 3.36023 14.6714C3.36023 12.7033 3.36023 10.0477 3.36023 8.31968Z" fill="#F3704A"/>
<path d="M19.2231 6.52487C19.5615 6.29055 20.009 6.28759 20.3506 6.51741L31.1047 13.7538L20.2677 7.87956C19.9667 7.71639 19.6031 7.71857 19.3041 7.88534L8.78125 13.7538L19.2231 6.52487Z" fill="#2387C2"/>
<path d="M19.6784 0.211609L39.4692 14.2828V18.4089L19.6784 4.44354L7.82898 13.2248V8.99287L19.6784 0.211609Z" fill="#2387C2"/>
<path d="M0 14.4392L2.43336 12.6406V16.8726L0 18.6711V14.4392Z" fill="#2387C2"/>
</svg>
