<svg width="18" height="17" viewBox="0 0 18 17" fill="none" xmlns="http://www.w3.org/2000/svg">
<path d="M3.93871 16.4986C3.84115 16.5455 3.7326 16.5637 3.62534 16.5512C3.51808 16.5388 3.4164 16.4962 3.33179 16.4283C3.24719 16.3604 3.18305 16.2698 3.14662 16.1669C3.11019 16.064 3.10293 15.9528 3.12566 15.8459L4.0296 10.6236L0.189112 6.9162C0.108023 6.8383 0.0497645 6.73921 0.0207677 6.62989C-0.00822911 6.52056 -0.00683644 6.40525 0.024792 6.29668C0.0564204 6.1881 0.117054 6.09049 0.2 6.01462C0.282946 5.93875 0.384977 5.88757 0.49483 5.86673L5.83582 5.09846L8.21877 0.321471C8.2645 0.225176 8.33615 0.143916 8.42546 0.0870444C8.51477 0.0301724 8.61813 0 8.72362 0C8.82912 0 8.93248 0.0301724 9.02179 0.0870444C9.1111 0.143916 9.18275 0.225176 9.22847 0.321471L11.6098 5.09846L16.9508 5.86673C17.0608 5.88733 17.163 5.93833 17.2461 6.01411C17.3293 6.08988 17.3901 6.18746 17.4219 6.29607C17.4537 6.40468 17.4553 6.52009 17.4264 6.62953C17.3975 6.73897 17.3392 6.83818 17.2581 6.9162L13.4176 10.622L14.3216 15.8442C14.3443 15.9511 14.3371 16.0623 14.3006 16.1652C14.2642 16.2682 14.2001 16.3587 14.1155 16.4266C14.0309 16.4946 13.9292 16.5371 13.8219 16.5496C13.7147 16.562 13.6061 16.5438 13.5085 16.497L8.7228 14.008L3.93871 16.4986Z" fill="#FFD433"/>
</svg>
