<svg width="29" height="24" viewBox="0 0 29 24" fill="none" xmlns="http://www.w3.org/2000/svg">
<path d="M0 3.13044C0 1.40154 1.62297 0 3.625 0H25.375C27.377 0 29 1.40154 29 3.13043V15.6522C29 17.3811 27.377 18.7826 25.375 18.7826H20.8438C20.2733 18.7826 19.736 19.0146 19.3937 19.4087L15.95 23.3739C15.225 24.2087 13.775 24.2087 13.05 23.3739L9.60625 19.4087C9.26395 19.0146 8.72675 18.7826 8.15625 18.7826H3.625C1.62297 18.7826 0 17.3811 0 15.6522V3.13044ZM9.0625 9.3913C9.0625 8.52686 8.25102 7.82609 7.25 7.82609C6.24898 7.82609 5.4375 8.52686 5.4375 9.3913C5.4375 10.2557 6.24898 10.9565 7.25 10.9565C8.25102 10.9565 9.0625 10.2557 9.0625 9.3913ZM16.3125 9.3913C16.3125 8.52686 15.501 7.82609 14.5 7.82609C13.499 7.82609 12.6875 8.52686 12.6875 9.3913C12.6875 10.2557 13.499 10.9565 14.5 10.9565C15.501 10.9565 16.3125 10.2557 16.3125 9.3913ZM21.75 10.9565C22.751 10.9565 23.5625 10.2557 23.5625 9.3913C23.5625 8.52686 22.751 7.82609 21.75 7.82609C20.749 7.82609 19.9375 8.52686 19.9375 9.3913C19.9375 10.2557 20.749 10.9565 21.75 10.9565Z" fill="#131D22"/>
</svg>
