<svg width="16" height="17" viewBox="0 0 16 17" fill="none" xmlns="http://www.w3.org/2000/svg">
<path d="M9 0.601573L10.9806 0.601562C11.1236 1.30337 11.5206 2.18875 12.215 3.06711C12.8955 3.92777 13.7971 4.52769 15 4.52769V6.49075C13.2466 6.49075 11.9291 5.69222 11 4.69591V11.3984C11 14.1088 8.76142 16.3061 6 16.3061C3.23858 16.3061 1 14.1088 1 11.3984C1 8.68799 3.23858 6.49075 6 6.49075V8.45382C4.34315 8.45382 3 9.77215 3 11.3984C3 13.0247 4.34315 14.343 6 14.343C7.65685 14.343 9 13.0247 9 11.3984V0.601573Z" fill="#2387C2"/>
</svg>
